<?xml version="1.0" encoding="UTF-8"?>
<svg id="Capa_2" data-name="Capa 2" xmlns="http://www.w3.org/2000/svg" viewBox="0 0 442.18 195.7">
  <defs>
    <style>
      .cls-1 {
        fill: #c79d47;
      }

      .cls-2 {
        fill: #dd3146;
      }

      .cls-3 {
        fill: #fcc74f;
      }

      .cls-4 {
        fill: #3ac167;
      }
    </style>
  </defs>
  <g id="Capa_1-2" data-name="Capa 1">
    <g>
      <g id="StOTgW.tif">
        <path class="cls-1" d="M106.79,94.34c.12.11.45.35.49.49l.14,1.72c.41,0,.83.02,1.23.07.36.04.8.18,1.14.19.31.01,1.38-.22,1.52.06.21.43-.24.61-.28.86s.29,1.18.45,1.32c.02.02.47.25.5.26.17.04.48-.08.6.22.04.09-.04.18-.02.27.02.13.13.24.08.42l.47.79-.48,1.49c.15.48-.3.77-.45,1.13-.1.23-.11.57-.27.81-.02.3.48.22.43.61-.04.35-.23.25-.35.32-.04.02-.21.29-.39.17-.04-.03-.18-.69-.25-.79-.06-.08-1.51-1.02-1.62-1.04-.38-.06-1.81-.05-2.21,0-.18.02-.35.14-.53.17-.98.16-1.98.24-2.95.45-.15.43-.3.86-.53,1.25-.11.19-.46.53-.5.7-.1.39.05,1-.03,1.43l-.84,2.64c-.04.13-.47-.16-.5-.19-.12-.12-.05-.38-.2-.43-.29.05-2.09.05-2.17.12-.01.01-.03.27-.08.39-.13.29-.51.63-.59,1-.02.1.08.46-.12.51-.28.06-.48-1.08-.57-1.26-.13-.27-.46-.28-.71-.37-.13-.05-.25-.18-.37-.2-.34-.05-1.08.24-1.5.11-.18-.05-.24-.34-.36-.4-.08-.04-.24.05-.34-.02-.05-.04-.02-.25-.23-.26-.04.11-.05.66-.07.69-.06.07-.85.21-.94.29-.13.11,0,.35-.09.48-.06.1-.48.13-.53.2-.03.05,0,.17-.05.24-.19.3-.47.52-.83.57-.16.02-.92.06-1,0-.21-.16-.09-.59-.12-.78-.03-.14-.2-.37-.23-.52-.03-.19.04-.45,0-.62-.02-.07-.18-.08-.22-.17-.08-.15,0-.36-.04-.53-.03-.1-.17-.17-.21-.29-.14-.42,0-1.19-.43-1.5-.07-.06-.23-.03-.28-.1-.18-.2,0-.77-.02-.8-.01-.02-.26-.12-.34-.2-.31-.31-.05-.35-.04-.54,0-.14-.17-.34-.12-.5.04-.12.25-.09.35-.16.3-.23-.24-.43-.22-.59.02-.1.49-.66.49-.71,0-.09-.25-.14-.29-.18-.09-.08-.72-.71-.74-.76-.06-.14.03-.24,0-.38-.04-.26-.14-.64-.19-.95-.04-.24-.3-.51-.3-.58,0-.11.16-.16.13-.29-.45.06-.35-.34-.49-.62-.05-.1-.19-.12-.24-.33-.04-.16,0-.41-.06-.51-.12-.2-.52.02-.28-.4.11-.2.37-.31.48-.44.13-.16.34-.58.46-.71.08-.09.22-.07.25-.1.02-.03.01-.24.06-.35.06-.16.49-.39.25-.47s-.43.06-.71-.3c-.16-.21-.38-.98-.36-1.23,0-.09.51-.62.51-.82,0-.14-.3-.29-.35-.47-.04-.12-.06-.42-.02-.53.03-.08.14-.08.16-.12.18-.37.46-.6.55-.81s-.05-.43.35-.38c-.02-.19-.24-.31-.29-.51-.06-.24-.02-.21-.12-.5-.12-.31.07-.22.15-.36.38-.6.08-.86.15-1.37.05-.35.45-.55.42-.97,0-.15-.42-.91-.53-1.11-.16-.3-1.24-2.12-1.23-2.25.02-.3,1.43-.2,1.7-.06.15.08.18.33.19.35.05.04.9-.35.98-.44.24-.25-.03-.62.64-.7.14-.02.34.05.41.03.03-.01.53-.32.61-.37.07-.05.26-.34.31-.35.1-.02.18.09.39,0,.3-.13.92-.89,1.14-.95.15-.04.33,0,.49-.02.31-.05.72-.2,1.02-.24.24-.03.52.15.7.12.04,0,0-.33.35-.23.44.12.26.48.29.74,0,.1.09.21.1.34.02.33-.3.6-.3.82,0,.14.33.7.35.89.04.29-.2.5-.16.79,0,.05.27.78.3.81.03.03.14-.01.18.05.09.12.08.46.18.56.08.08.27.07.38.13.14.08.23.28.4.36.09.04.28.04.29.05.02.03,0,.16.04.24.02.04.29.21.34.23.06.02.63.13.67.13.12,0,.33-.24.5-.23.04,0,.66.31.73.36.07.05.1.19.17.21.15.04.3-.3.59.03.08.08.1.24.16.29.09.08.2.04.27.08.05.03.09.21.21.27.1.05.23,0,.3.05.03.02.03.14.12.16.19.06.83.11.93.2.09.08.05.21.12.3.04.05.27.16.36.24s.13.24.23.28c.15.05.29-.04.43-.04.41-.02,1.08-.13,1.42.09.05.04.07.12.15.17.25.14.61.2.87.33,0,.14.18.5.19.57,0,.1-.09.18-.11.27-.07.32.36.81.43,1.19.03.16.09.87.07,1.01-.03.15-.06.14-.19.16-.11-.04-.3-.09-.32.06Z"/>
      </g>
      <g>
        <path class="cls-2" d="M183.78,68.32c-7.59.79-29.27-5.44-30.6-5.83,1.68-.06,28.4-.8,33.27.54,5.03,1.43,5.18,4.44-2.67,5.28Z"/>
        <path class="cls-2" d="M186.99,80.34c-7.63-.25-28.24-9.4-29.52-9.97,1.67.17,28.24,3.1,32.88,5.1,4.79,2.11,4.52,5.11-3.37,4.87Z"/>
        <path class="cls-2" d="M188.53,92.68c-7.52-1.3-26.69-13.18-27.87-13.92,1.63.39,27.55,6.94,31.87,9.56,4.46,2.74,3.78,5.68-4,4.36Z"/>
        <path class="cls-2" d="M188.39,105c-7.28-2.3-24.68-16.65-25.75-17.54,1.56.61,26.37,10.58,30.3,13.76,4.05,3.32,2.98,6.14-4.55,3.78Z"/>
        <path class="cls-2" d="M186.57,117.39c-6.9-3.26-22.19-19.84-23.13-20.87,1.47.82,24.69,14.06,28.15,17.74,3.56,3.83,2.12,6.48-5.02,3.13Z"/>
        <path class="cls-2" d="M183.08,129.33c-6.39-4.17-19.27-22.69-20.06-23.84,1.34,1.01,22.54,17.31,25.46,21.42,3,4.29,1.22,6.71-5.4,2.41Z"/>
        <path class="cls-2" d="M177.99,140.68c-5.75-5.01-15.97-25.12-16.6-26.36,1.19,1.18,19.95,20.23,22.28,24.72,2.39,4.66.28,6.82-5.68,1.65Z"/>
        <path class="cls-2" d="M171.39,151.21c-5.01-5.75-12.39-27.07-12.84-28.39,1.02,1.34,16.99,22.77,18.69,27.53,1.73,4.94-.65,6.79-5.85.86Z"/>
        <path class="cls-2" d="M163.44,160.75c-4.19-6.38-8.59-28.5-8.86-29.87.83,1.46,13.74,24.87,14.78,29.81,1.04,5.13-1.57,6.64-5.92.05Z"/>
        <path class="cls-2" d="M154.29,169.1c-3.29-6.89-4.67-29.4-4.75-30.79.62,1.56,10.26,26.5,10.62,31.54.34,5.22-2.45,6.37-5.87-.75Z"/>
        <path class="cls-2" d="M144.06,176.17c-2.32-7.27-.63-29.76-.53-31.15.4,1.63,6.57,27.64,6.24,32.68-.37,5.22-3.29,5.98-5.71-1.54Z"/>
        <path class="cls-2" d="M132.97,181.76c-1.31-7.52,3.42-29.57,3.72-30.93.18,1.67,2.75,28.28,1.74,33.23-1.08,5.12-4.07,5.47-5.45-2.3Z"/>
        <path class="cls-2" d="M121.22,185.8c-.27-7.62,7.43-28.82,7.91-30.13-.05,1.68-1.15,28.39-2.83,33.15-1.77,4.92-4.78,4.86-5.09-3.02Z"/>
        <path class="cls-2" d="M109.01,188.18c.78-7.59,11.32-27.53,11.97-28.76-.28,1.65-5.03,27.96-7.35,32.45-2.43,4.63-5.41,4.16-4.62-3.69Z"/>
        <path class="cls-2" d="M96.59,188.87c1.81-7.41,14.97-25.73,15.79-26.86-.5,1.6-8.8,27.01-11.71,31.15-3.04,4.26-5.92,3.38-4.08-4.29Z"/>
        <path class="cls-2" d="M84.28,187.9c2.78-7.1,18.27-23.5,19.23-24.51-.71,1.52-12.33,25.6-15.77,29.3-3.58,3.82-6.32,2.56-3.47-4.79Z"/>
        <path class="cls-2" d="M72.07,185.24c3.73-6.66,21.31-20.78,22.4-21.65-.91,1.41-15.72,23.67-19.62,26.87-4.07,3.29-6.61,1.67-2.78-5.22Z"/>
        <path class="cls-2" d="M60.4,180.93c4.6-6.08,23.96-17.66,25.16-18.37-1.1,1.27-18.82,21.29-23.12,23.93-4.48,2.7-6.78.75-2.04-5.56Z"/>
        <path class="cls-2" d="M49.43,175.08c5.39-5.4,26.16-14.21,27.44-14.75-1.26,1.11-21.56,18.51-26.19,20.53-4.81,2.06-6.82-.18-1.26-5.78Z"/>
        <path class="cls-2" d="M39.37,167.78c6.08-4.61,27.85-10.51,29.2-10.87-1.4.92-23.88,15.4-28.74,16.77-5.05,1.39-6.73-1.11-.46-5.9Z"/>
        <path class="cls-2" d="M30.33,159.12c6.65-3.74,29.02-6.6,30.41-6.78-1.51.72-25.76,11.99-30.76,12.68-5.19.68-6.52-2.02.35-5.91Z"/>
        <path class="cls-2" d="M22.68,149.49c7.09-2.81,29.65-2.65,31.04-2.64-1.6.51-27.13,8.43-32.19,8.44-5.23-.02-6.19-2.88,1.14-5.81Z"/>
        <path class="cls-2" d="M16.34,138.82c7.41-1.82,29.73,1.39,31.11,1.6-1.65.29-28.03,4.67-33.03,4-5.18-.73-5.74-3.69,1.92-5.6Z"/>
        <path class="cls-2" d="M11.51,127.37c7.59-.79,29.27,5.44,30.6,5.83-1.68.06-28.4.8-33.27-.54-5.03-1.43-5.18-4.44,2.67-5.28Z"/>
        <path class="cls-2" d="M8.3,115.36c7.63.25,28.24,9.4,29.52,9.97-1.67-.17-28.24-3.1-32.88-5.1-4.79-2.11-4.52-5.11,3.37-4.87Z"/>
        <path class="cls-2" d="M6.76,103.01c7.52,1.3,26.69,13.18,27.87,13.92-1.63-.39-27.55-6.94-31.87-9.56-4.46-2.74-3.78-5.68,4-4.36Z"/>
        <path class="cls-2" d="M6.9,90.69c7.28,2.3,24.68,16.65,25.75,17.54-1.56-.61-26.37-10.58-30.3-13.76-4.05-3.32-2.98-6.14,4.55-3.78Z"/>
        <path class="cls-2" d="M8.72,78.31c6.9,3.26,22.19,19.84,23.13,20.87-1.47-.82-24.69-14.06-28.15-17.74-3.56-3.83-2.12-6.48,5.02-3.13Z"/>
        <path class="cls-2" d="M12.2,66.37c6.39,4.17,19.27,22.69,20.06,23.84-1.34-1.01-22.54-17.31-25.46-21.42-3-4.29-1.22-6.71,5.4-2.41Z"/>
        <path class="cls-2" d="M17.3,55.02c5.75,5.01,15.97,25.12,16.6,26.36-1.19-1.18-19.95-20.23-22.28-24.72-2.39-4.66-.28-6.82,5.68-1.65Z"/>
        <path class="cls-2" d="M23.89,44.48c5.01,5.75,12.39,27.07,12.84,28.39-1.02-1.34-16.99-22.77-18.69-27.53-1.73-4.94.65-6.79,5.85-.86Z"/>
        <path class="cls-2" d="M31.84,34.95c4.19,6.38,8.59,28.5,8.86,29.87-.83-1.46-13.74-24.87-14.78-29.81-1.04-5.13,1.57-6.64,5.92-.05Z"/>
        <path class="cls-2" d="M40.99,26.6c3.29,6.89,4.67,29.4,4.75,30.79-.62-1.56-10.26-26.5-10.62-31.54-.34-5.22,2.45-6.37,5.87.75Z"/>
        <path class="cls-2" d="M51.22,19.53c2.32,7.27.63,29.76.53,31.15-.4-1.63-6.57-27.64-6.24-32.68.37-5.22,3.29-5.98,5.71,1.54Z"/>
        <path class="cls-2" d="M62.31,13.93c1.31,7.52-3.42,29.57-3.72,30.93-.18-1.67-2.75-28.28-1.74-33.23,1.08-5.12,4.07-5.47,5.45,2.3Z"/>
        <path class="cls-2" d="M74.07,9.9c.27,7.62-7.43,28.82-7.91,30.13.05-1.68,1.15-28.39,2.83-33.15,1.77-4.92,4.78-4.86,5.09,3.02Z"/>
        <path class="cls-2" d="M86.28,7.52c-.78,7.59-11.32,27.53-11.97,28.76.28-1.65,5.03-27.96,7.35-32.45,2.43-4.63,5.41-4.16,4.62,3.69Z"/>
        <path class="cls-2" d="M98.7,6.83c-1.81,7.41-14.97,25.73-15.79,26.86.5-1.6,8.81-27.01,11.71-31.15,3.04-4.26,5.92-3.38,4.08,4.29Z"/>
        <path class="cls-2" d="M111,7.8c-2.78,7.1-18.27,23.5-19.23,24.51.71-1.52,12.33-25.6,15.77-29.3,3.58-3.82,6.32-2.56,3.47,4.79Z"/>
        <path class="cls-2" d="M123.21,10.46c-3.73,6.66-21.31,20.78-22.4,21.65.91-1.41,15.72-23.67,19.62-26.87,4.07-3.29,6.61-1.67,2.78,5.22Z"/>
        <path class="cls-2" d="M134.89,14.76c-4.6,6.08-23.96,17.66-25.16,18.37,1.1-1.27,18.82-21.29,23.12-23.93,4.48-2.7,6.78-.75,2.04,5.56Z"/>
        <path class="cls-2" d="M145.85,20.62c-5.39,5.4-26.16,14.21-27.44,14.75,1.26-1.11,21.56-18.51,26.19-20.53,4.81-2.06,6.82.18,1.26,5.78Z"/>
        <path class="cls-2" d="M155.91,27.91c-6.08,4.61-27.85,10.51-29.2,10.87,1.4-.92,23.88-15.4,28.74-16.77,5.05-1.39,6.73,1.11.46,5.9Z"/>
        <path class="cls-2" d="M164.96,36.57c-6.65,3.73-29.02,6.6-30.41,6.78,1.51-.72,25.76-11.99,30.76-12.68,5.19-.68,6.52,2.02-.35,5.91Z"/>
        <path class="cls-2" d="M172.61,46.2c-7.09,2.81-29.65,2.65-31.04,2.64,1.6-.51,27.13-8.43,32.19-8.44,5.23.02,6.19,2.88-1.14,5.81Z"/>
        <path class="cls-2" d="M178.95,56.88c-7.41,1.82-29.73-1.39-31.11-1.6,1.65-.29,28.03-4.67,33.03-4,5.18.73,5.74,3.69-1.92,5.6Z"/>
      </g>
      <g>
        <path class="cls-3" d="M154.54,78.35c-5.01.52-19.33-3.59-20.22-3.85,1.11-.04,18.76-.53,21.98.36,3.33.94,3.42,2.93-1.76,3.49Z"/>
        <path class="cls-3" d="M156.66,86.28c-5.04-.17-18.66-6.21-19.5-6.58,1.1.11,18.66,2.05,21.72,3.37,3.16,1.39,2.99,3.37-2.22,3.21Z"/>
        <path class="cls-3" d="M157.68,94.44c-4.97-.86-17.63-8.71-18.41-9.19,1.08.26,18.2,4.59,21.05,6.32,2.94,1.81,2.5,3.75-2.64,2.88Z"/>
        <path class="cls-3" d="M157.58,102.66c-4.8-1.52-16.28-11.02-16.99-11.61,1.03.4,17.41,7.01,20,9.11,2.67,2.19,1.97,4.06-3.01,2.49Z"/>
        <path class="cls-3" d="M156.38,110.76c-4.56-2.15-14.66-13.11-15.28-13.79.97.54,16.31,9.29,18.6,11.72,2.35,2.53,1.4,4.28-3.32,2.07Z"/>
        <path class="cls-3" d="M154.08,118.64c-4.22-2.76-12.73-14.99-13.25-15.75.89.67,14.89,11.43,16.82,14.15,1.98,2.83.8,4.43-3.57,1.59Z"/>
        <path class="cls-3" d="M150.71,126.14c-3.8-3.31-10.55-16.59-10.96-17.42.79.78,13.18,13.37,14.72,16.33,1.58,3.08.19,4.5-3.75,1.09Z"/>
        <path class="cls-3" d="M146.36,133.1c-3.31-3.8-8.18-17.88-8.48-18.75.67.88,11.23,15.04,12.35,18.18,1.14,3.26-.43,4.49-3.87.57Z"/>
        <path class="cls-3" d="M141.11,139.4c-2.76-4.21-5.68-18.83-5.85-19.73.55.96,9.08,16.43,9.76,19.69.69,3.39-1.04,4.39-3.91.04Z"/>
        <path class="cls-3" d="M135.06,144.91c-2.17-4.55-3.08-19.42-3.14-20.34.41,1.03,6.78,17.5,7.01,20.83.22,3.45-1.62,4.21-3.88-.49Z"/>
        <path class="cls-3" d="M128.3,149.58c-1.53-4.8-.42-19.66-.35-20.58.27,1.08,4.34,18.26,4.12,21.59-.25,3.45-2.17,3.95-3.77-1.01Z"/>
        <path class="cls-3" d="M120.98,153.28c-.87-4.96,2.26-19.53,2.45-20.43.12,1.1,1.81,18.68,1.15,21.95-.71,3.38-2.69,3.62-3.6-1.52Z"/>
        <path class="cls-3" d="M113.21,155.94c-.18-5.04,4.91-19.04,5.23-19.9-.03,1.11-.76,18.75-1.87,21.9-1.17,3.25-3.16,3.21-3.36-2Z"/>
        <path class="cls-3" d="M105.15,157.51c.51-5.01,7.48-18.19,7.91-19-.19,1.09-3.33,18.47-4.86,21.44-1.6,3.06-3.57,2.75-3.05-2.44Z"/>
        <path class="cls-3" d="M96.95,157.97c1.19-4.9,9.89-16.99,10.43-17.74-.33,1.06-5.82,17.85-7.74,20.57-2.01,2.81-3.91,2.24-2.69-2.83Z"/>
        <path class="cls-3" d="M88.82,157.33c1.84-4.69,12.07-15.52,12.71-16.19-.47,1-8.15,16.91-10.42,19.36-2.37,2.52-4.18,1.69-2.29-3.17Z"/>
        <path class="cls-3" d="M80.75,155.57c2.46-4.4,14.08-13.73,14.8-14.3-.6.93-10.38,15.64-12.96,17.75-2.69,2.17-4.37,1.11-1.84-3.45Z"/>
        <path class="cls-3" d="M73.04,152.73c3.04-4.02,15.83-11.66,16.62-12.14-.73.84-12.43,14.06-15.28,15.8-2.96,1.78-4.48.5-1.35-3.67Z"/>
        <path class="cls-3" d="M65.8,148.86c3.56-3.56,17.28-9.39,18.13-9.74-.83.73-14.24,12.23-17.3,13.56-3.18,1.36-4.51-.12-.83-3.82Z"/>
        <path class="cls-3" d="M59.15,144.05c4.02-3.04,18.4-6.94,19.29-7.18-.93.61-15.77,10.17-18.98,11.08-3.33.92-4.45-.73-.3-3.9Z"/>
        <path class="cls-3" d="M53.23,138.38c4.39-2.47,19.17-4.39,20.08-4.5-1,.48-17.01,7.94-20.31,8.4-3.43.46-4.31-1.33.23-3.9Z"/>
        <path class="cls-3" d="M48.12,131.96c4.69-1.86,19.58-1.75,20.51-1.74-1.06.34-17.92,5.57-21.26,5.58-3.46-.01-4.09-1.9.76-3.83Z"/>
        <path class="cls-3" d="M43.93,124.91c4.89-1.2,19.64.92,20.55,1.05-1.09.19-18.51,3.09-21.82,2.64-3.42-.48-3.79-2.44,1.27-3.7Z"/>
        <path class="cls-3" d="M40.75,117.35c5.01-.52,19.33,3.59,20.22,3.85-1.11.04-18.76.53-21.98-.36-3.33-.94-3.42-2.93,1.76-3.49Z"/>
        <path class="cls-3" d="M38.62,109.42c5.04.17,18.66,6.21,19.5,6.58-1.1-.11-18.66-2.05-21.72-3.37-3.16-1.39-2.99-3.37,2.22-3.21Z"/>
        <path class="cls-3" d="M37.61,101.26c4.97.86,17.63,8.71,18.41,9.19-1.08-.26-18.2-4.59-21.05-6.32-2.94-1.81-2.5-3.75,2.64-2.88Z"/>
        <path class="cls-3" d="M37.71,93.03c4.8,1.52,16.28,11.02,16.99,11.61-1.03-.4-17.41-7.01-20-9.11-2.67-2.19-1.97-4.06,3.01-2.49Z"/>
        <path class="cls-3" d="M38.9,84.94c4.56,2.15,14.66,13.11,15.28,13.79-.97-.54-16.31-9.29-18.6-11.72-2.35-2.53-1.4-4.28,3.32-2.07Z"/>
        <path class="cls-3" d="M41.21,77.05c4.22,2.76,12.73,14.99,13.25,15.75-.89-.67-14.89-11.43-16.82-14.15-1.98-2.83-.8-4.43,3.57-1.59Z"/>
        <path class="cls-3" d="M44.57,69.56c3.8,3.31,10.55,16.59,10.96,17.42-.79-.78-13.18-13.37-14.72-16.33-1.58-3.08-.19-4.5,3.75-1.09Z"/>
        <path class="cls-3" d="M48.92,62.6c3.31,3.8,8.18,17.88,8.48,18.75-.67-.88-11.23-15.04-12.35-18.18-1.14-3.26.43-4.49,3.87-.57Z"/>
        <path class="cls-3" d="M54.18,56.3c2.76,4.21,5.68,18.83,5.85,19.73-.55-.96-9.08-16.43-9.76-19.69-.69-3.39,1.04-4.39,3.91-.04Z"/>
        <path class="cls-3" d="M60.22,50.78c2.17,4.55,3.08,19.42,3.14,20.34-.41-1.03-6.78-17.5-7.01-20.83-.22-3.45,1.62-4.21,3.88.49Z"/>
        <path class="cls-3" d="M66.98,46.11c1.53,4.8.42,19.66.35,20.58-.27-1.08-4.34-18.26-4.12-21.59.25-3.45,2.17-3.95,3.77,1.01Z"/>
        <path class="cls-3" d="M74.3,42.42c.87,4.96-2.26,19.53-2.45,20.43-.12-1.1-1.81-18.68-1.15-21.95.71-3.38,2.69-3.62,3.6,1.52Z"/>
        <path class="cls-3" d="M82.07,39.75c.18,5.04-4.91,19.04-5.23,19.9.03-1.11.76-18.75,1.87-21.9,1.17-3.25,3.16-3.21,3.36,2Z"/>
        <path class="cls-3" d="M90.14,38.18c-.51,5.01-7.48,18.19-7.91,19,.19-1.09,3.33-18.47,4.86-21.44,1.6-3.06,3.57-2.75,3.05,2.44Z"/>
        <path class="cls-3" d="M98.34,37.73c-1.19,4.9-9.89,16.99-10.43,17.74.33-1.06,5.82-17.85,7.74-20.57,2.01-2.81,3.91-2.24,2.69,2.83Z"/>
        <path class="cls-3" d="M106.47,38.36c-1.84,4.69-12.07,15.52-12.71,16.19.47-1,8.15-16.91,10.42-19.36,2.37-2.52,4.18-1.69,2.29,3.17Z"/>
        <path class="cls-3" d="M114.53,40.12c-2.46,4.4-14.08,13.73-14.8,14.3.6-.93,10.38-15.64,12.96-17.75,2.69-2.17,4.37-1.11,1.84,3.45Z"/>
        <path class="cls-3" d="M122.24,42.96c-3.04,4.02-15.83,11.66-16.62,12.14.73-.84,12.43-14.06,15.28-15.8,2.96-1.78,4.48-.5,1.35,3.67Z"/>
        <path class="cls-3" d="M129.49,46.83c-3.56,3.56-17.28,9.39-18.13,9.74.83-.73,14.24-12.23,17.3-13.56,3.18-1.36,4.51.12.83,3.82Z"/>
        <path class="cls-3" d="M136.13,51.65c-4.02,3.04-18.4,6.94-19.29,7.18.93-.61,15.77-10.17,18.98-11.08,3.33-.92,4.45.73.3,3.9Z"/>
        <path class="cls-3" d="M142.06,57.32c-4.39,2.47-19.17,4.39-20.08,4.5,1-.48,17.01-7.94,20.31-8.4,3.43-.46,4.31,1.33-.23,3.9Z"/>
        <path class="cls-3" d="M147.16,63.73c-4.69,1.86-19.58,1.75-20.51,1.74,1.06-.34,17.92-5.57,21.26-5.58,3.46.01,4.09,1.9-.76,3.83Z"/>
        <path class="cls-3" d="M151.35,70.78c-4.89,1.2-19.64-.92-20.55-1.05,1.09-.19,18.51-3.09,21.82-2.64,3.42.48,3.79,2.44-1.27,3.7Z"/>
      </g>
      <g>
        <path class="cls-4" d="M59.42,97.31c3.32,2.07,14.73,4.08,15.43,4.2-.76-.41-12.92-6.77-15.47-7.24-2.64-.47-3.39.88.04,3.04Z"/>
        <path class="cls-4" d="M60.04,104.78c3.66,1.39,15.24,1.14,15.96,1.13-.82-.25-13.99-4.13-16.59-4.1-2.69.05-3.15,1.52.63,2.97Z"/>
        <path class="cls-4" d="M62.12,111.99c3.86.64,15.17-1.87,15.87-2.03-.86-.08-14.53-1.3-17.07-.76-2.62.57-2.79,2.11,1.2,2.79Z"/>
        <path class="cls-4" d="M65.56,118.65c3.92-.12,14.51-4.8,15.16-5.09-.86.08-14.5,1.57-16.89,2.59-2.46,1.08-2.33,2.62,1.72,2.5Z"/>
        <path class="cls-4" d="M70.24,124.5c3.82-.88,13.3-7.53,13.89-7.94-.82.25-13.92,4.35-16.06,5.82-2.21,1.53-1.77,3.02,2.18,2.12Z"/>
        <path class="cls-4" d="M75.95,129.33c3.57-1.61,11.59-9.97,12.08-10.49-.76.4-12.81,6.97-14.63,8.83-1.87,1.93-1.15,3.31,2.55,1.66Z"/>
        <path class="cls-4" d="M82.51,132.96c3.19-2.27,9.41-12.04,9.8-12.64-.67.55-11.2,9.35-12.62,11.52-1.45,2.26-.49,3.47,2.82,1.13Z"/>
        <path class="cls-4" d="M89.66,135.24c2.68-2.86,6.86-13.66,7.12-14.32-.55.67-9.15,11.36-10.11,13.77-.98,2.5.21,3.5,2.99.55Z"/>
        <path class="cls-4" d="M97.11,136.07c2.07-3.32,4.08-14.73,4.2-15.43-.41.76-6.77,12.92-7.24,15.47-.47,2.64.88,3.39,3.04-.04Z"/>
        <path class="cls-4" d="M104.57,135.45c1.39-3.66,1.14-15.24,1.13-15.96-.25.82-4.13,13.99-4.1,16.59.05,2.69,1.52,3.15,2.97-.63Z"/>
        <path class="cls-4" d="M111.79,133.37c.64-3.86-1.87-15.17-2.03-15.87-.08.86-1.3,14.53-.76,17.07.57,2.62,2.11,2.79,2.79-1.2Z"/>
        <path class="cls-4" d="M118.44,129.93c-.12-3.92-4.8-14.51-5.09-15.16.08.86,1.57,14.5,2.59,16.89,1.08,2.46,2.62,2.33,2.5-1.72Z"/>
        <path class="cls-4" d="M124.29,125.26c-.88-3.82-7.53-13.3-7.94-13.89.25.82,4.35,13.92,5.82,16.06,1.53,2.21,3.02,1.77,2.12-2.18Z"/>
        <path class="cls-4" d="M129.12,119.54c-1.61-3.57-9.97-11.59-10.48-12.08.4.76,6.97,12.81,8.83,14.63,1.93,1.87,3.31,1.15,1.66-2.55Z"/>
        <path class="cls-4" d="M132.76,112.98c-2.27-3.19-12.04-9.41-12.64-9.8.55.67,9.35,11.2,11.52,12.62,2.26,1.45,3.47.49,1.13-2.82Z"/>
        <path class="cls-4" d="M135.03,105.83c-2.86-2.68-13.66-6.86-14.32-7.12.67.55,11.37,9.15,13.77,10.11,2.5.98,3.5-.21.55-2.99Z"/>
        <path class="cls-4" d="M135.87,98.38c-3.32-2.07-14.73-4.08-15.43-4.2.76.41,12.92,6.77,15.47,7.24,2.64.47,3.39-.88-.04-3.04Z"/>
        <path class="cls-4" d="M135.24,90.92c-3.66-1.39-15.24-1.14-15.96-1.13.82.25,13.99,4.13,16.59,4.1,2.69-.05,3.15-1.52-.63-2.97Z"/>
        <path class="cls-4" d="M133.17,83.7c-3.86-.64-15.17,1.87-15.87,2.03.86.08,14.53,1.3,17.07.76,2.62-.57,2.79-2.11-1.2-2.79Z"/>
        <path class="cls-4" d="M129.72,77.05c-3.92.12-14.51,4.8-15.16,5.09.86-.08,14.5-1.57,16.89-2.59,2.46-1.08,2.33-2.62-1.72-2.5Z"/>
        <path class="cls-4" d="M125.05,71.2c-3.82.88-13.3,7.53-13.89,7.94.82-.25,13.92-4.35,16.06-5.82,2.21-1.53,1.77-3.02-2.18-2.12Z"/>
        <path class="cls-4" d="M119.33,66.37c-3.57,1.61-11.59,9.97-12.08,10.48.76-.4,12.81-6.97,14.63-8.83,1.87-1.93,1.15-3.31-2.55-1.66Z"/>
        <path class="cls-4" d="M112.78,62.74c-3.19,2.27-9.41,12.04-9.8,12.64.67-.55,11.2-9.35,12.62-11.52,1.45-2.26.49-3.47-2.82-1.13Z"/>
        <path class="cls-4" d="M105.62,60.46c-2.68,2.86-6.86,13.66-7.12,14.32.55-.67,9.15-11.36,10.11-13.77.98-2.5-.21-3.5-2.99-.55Z"/>
        <path class="cls-4" d="M98.18,59.62c-2.07,3.32-4.08,14.73-4.2,15.43.41-.76,6.77-12.92,7.24-15.47.47-2.64-.88-3.39-3.04.04Z"/>
        <path class="cls-4" d="M90.71,60.25c-1.39,3.66-1.14,15.24-1.13,15.96.25-.82,4.13-13.99,4.1-16.59-.05-2.69-1.52-3.15-2.97.63Z"/>
        <path class="cls-4" d="M83.5,62.32c-.64,3.86,1.87,15.17,2.03,15.87.08-.86,1.3-14.53.76-17.07-.57-2.62-2.11-2.79-2.79,1.2Z"/>
        <path class="cls-4" d="M76.84,65.77c.12,3.92,4.8,14.51,5.09,15.16-.08-.86-1.57-14.5-2.59-16.89-1.08-2.46-2.62-2.33-2.5,1.72Z"/>
        <path class="cls-4" d="M70.99,70.44c.88,3.82,7.53,13.3,7.94,13.89-.25-.82-4.35-13.92-5.82-16.06-1.53-2.21-3.02-1.77-2.12,2.18Z"/>
        <path class="cls-4" d="M66.16,76.16c1.61,3.57,9.97,11.59,10.48,12.08-.4-.76-6.97-12.81-8.83-14.63-1.93-1.87-3.31-1.15-1.66,2.55Z"/>
        <path class="cls-4" d="M62.53,82.71c2.27,3.19,12.04,9.41,12.64,9.8-.55-.67-9.35-11.2-11.52-12.62-2.26-1.45-3.47-.49-1.13,2.82Z"/>
        <path class="cls-4" d="M60.25,89.87c2.86,2.68,13.66,6.86,14.32,7.12-.67-.55-11.36-9.15-13.77-10.11-2.5-.98-3.5.21-.55,2.99Z"/>
      </g>
      <g>
        <g>
          <path class="cls-1" d="M222.62,62.02h-4.44l11.61-26.7h4.02l11.61,26.7h-4.47l-2.88-6.6h-12.59l-2.85,6.6ZM231.76,40.59l-4.86,11.15h9.71l-4.85-11.15Z"/>
          <path class="cls-1" d="M260.51,62.52c-3.92,0-7.21-1.29-9.86-3.87-2.63-2.63-3.94-5.93-3.94-9.9s1.33-7.28,3.98-9.86c2.63-2.6,5.96-3.91,9.98-3.91,3.24,0,5.97.76,8.19,2.28v4.13c-2.43-1.67-5.07-2.5-7.93-2.5s-5.29.92-7.13,2.77c-1.87,1.87-2.81,4.25-2.81,7.13s.91,5.31,2.73,7.13c1.87,1.8,4.13,2.69,6.79,2.69s4.84-.74,6.41-2.24v-9.67h4.17v11.38c-1.11,1.32-2.61,2.38-4.49,3.21-1.88.82-3.91,1.23-6.09,1.23Z"/>
          <path class="cls-1" d="M296.39,62.02h-19.38v-26.55h18.89v3.83h-14.72v6.64h11.99v3.83h-11.99v8.42h15.21v3.83Z"/>
          <path class="cls-1" d="M305.42,62.02h-4.1v-26.55h3.64l14.98,19.23v-19.23h4.1v26.55h-3.53l-15.1-19.31v19.31Z"/>
          <path class="cls-1" d="M340.01,62.02h-9.37v-26.55h9.37c4.25,0,7.72,1.24,10.43,3.72,2.71,2.48,4.06,5.66,4.06,9.56s-1.35,7.12-4.06,9.59c-2.68,2.45-6.16,3.68-10.43,3.68ZM334.81,39.3v18.89h4.82c3.34,0,5.93-.85,7.78-2.54,1.87-1.72,2.81-4.02,2.81-6.9s-.94-5.18-2.81-6.9c-1.85-1.69-4.44-2.54-7.78-2.54h-4.82Z"/>
          <path class="cls-1" d="M360.22,62.02h-4.44l11.61-26.7h4.02l11.61,26.7h-4.47l-2.88-6.6h-12.59l-2.85,6.6ZM369.37,40.59l-4.86,11.15h9.71l-4.85-11.15Z"/>
          <path class="cls-1" d="M235.18,137.69c-6.07,0-11.56-1.38-16.47-4.14v-11.17c4.91,3.09,10.23,4.63,15.97,4.63,3.75,0,6.83-.85,9.23-2.57,2.4-1.71,3.6-4.08,3.6-7.12,0-2.87-1.17-5.18-3.52-6.95-2.35-1.77-5.48-2.65-9.39-2.65-4.58,0-9.21.83-13.9,2.48l3.81-31.61h30.95v10.26h-22.18l-1.24,9.85c1.71-.38,3.56-.58,5.54-.58,6.4,0,11.61,1.77,15.64,5.29,4.14,3.53,6.21,8.17,6.21,13.9,0,6.35-2.35,11.34-7.03,14.98-4.69,3.59-10.43,5.38-17.21,5.38Z"/>
          <path class="cls-1" d="M289.7,137.69c-5.13,0-9.63-1.4-13.49-4.22-3.75-2.76-6.61-6.33-8.56-10.71-1.96-4.38-2.94-9.25-2.94-14.61s.94-10.12,2.81-14.45c1.99-4.54,4.92-8.2,8.81-10.95,3.89-2.76,8.34-4.14,13.36-4.14,7.61,0,13.65,2.89,18.12,8.68,4.52,5.74,6.79,12.69,6.79,20.86s-2.26,15.12-6.79,20.86c-4.47,5.79-10.51,8.68-18.12,8.68ZM280.19,121.38c2.43,3.57,5.6,5.36,9.52,5.36s7.12-1.79,9.43-5.36c2.37-3.62,3.56-8.03,3.56-13.23s-1.19-9.63-3.56-13.15c-2.32-3.62-5.46-5.44-9.43-5.44s-7.14,1.81-9.52,5.44c-2.37,3.52-3.56,7.9-3.56,13.15s1.19,9.6,3.56,13.23Z"/>
          <path class="cls-1" d="M362.75,137.69c-6.07,0-11.56-1.38-16.47-4.14v-11.17c4.91,3.09,10.23,4.63,15.97,4.63,3.75,0,6.83-.85,9.23-2.57,2.4-1.71,3.6-4.08,3.6-7.12,0-2.87-1.17-5.18-3.52-6.95-2.35-1.77-5.48-2.65-9.39-2.65-4.58,0-9.21.83-13.9,2.48l3.81-31.61h30.95v10.26h-22.18l-1.24,9.85c1.71-.38,3.56-.58,5.54-.58,6.4,0,11.61,1.77,15.64,5.29,4.14,3.53,6.21,8.17,6.21,13.9,0,6.35-2.35,11.34-7.03,14.98-4.69,3.59-10.43,5.38-17.21,5.38Z"/>
          <path class="cls-1" d="M417.27,137.69c-5.13,0-9.63-1.43-13.49-4.3-3.75-2.81-6.61-6.45-8.56-10.92-1.96-4.47-2.94-9.43-2.94-14.89s.94-10.31,2.81-14.73c1.99-4.63,4.92-8.36,8.81-11.17,3.89-2.81,8.34-4.22,13.36-4.22,7.61,0,13.65,2.95,18.12,8.85,4.52,5.85,6.79,12.94,6.79,21.27s-2.26,15.42-6.79,21.27c-4.47,5.9-10.51,8.85-18.12,8.85ZM407.76,121.06c2.43,3.64,5.6,5.46,9.52,5.46s7.12-1.82,9.43-5.46c2.37-3.69,3.56-8.19,3.56-13.49s-1.19-9.82-3.56-13.41c-2.32-3.69-5.46-5.54-9.43-5.54s-7.14,1.85-9.52,5.54c-2.37,3.59-3.56,8.06-3.56,13.41s1.19,9.79,3.56,13.49Z"/>
        </g>
        <path class="cls-2" d="M332.67,81.66c.89,7-5.44,24.99-5.83,26.1-.08-1.52-1.08-25.68.29-29.73,1.45-4.18,4.6-3.61,5.54,3.63Z"/>
        <path class="cls-2" d="M328.16,134.89c-.69-7.01,5.79-25.76,6.2-26.92.04,1.53.44,25.9-.97,30.12-1.49,4.36-4.49,4.05-5.23-3.2Z"/>
      </g>
      <g>
        <path class="cls-1" d="M218.4,158.58v-4.08h1.11v4.12c0,.65.17,1.16.49,1.51.33.35.78.53,1.36.53s1.03-.18,1.36-.53c.33-.35.5-.86.5-1.51v-4.12h1.11v4.08c0,.99-.28,1.76-.83,2.31-.56.55-1.27.82-2.14.82s-1.58-.27-2.14-.81c-.55-.55-.82-1.32-.82-2.32Z"/>
        <path class="cls-1" d="M228.09,161.58h-1.09v-7.08h.97l3.99,5.13v-5.13h1.09v7.08h-.94l-4.02-5.15v5.15Z"/>
        <path class="cls-1" d="M236.35,161.58h-1.18l3.09-7.12h1.07l3.09,7.12h-1.19l-.77-1.76h-3.36l-.76,1.76ZM238.79,155.86l-1.29,2.97h2.59l-1.29-2.97Z"/>
        <path class="cls-1" d="M249.27,161.58h-1.09v-7.08h.97l3.99,5.13v-5.13h1.09v7.08h-.94l-4.02-5.15v5.15Z"/>
        <path class="cls-1" d="M256.91,158.58v-4.08h1.11v4.12c0,.65.17,1.16.49,1.51.33.35.78.53,1.36.53s1.03-.18,1.36-.53c.33-.35.5-.86.5-1.51v-4.12h1.11v4.08c0,.99-.28,1.76-.83,2.31-.56.55-1.27.82-2.14.82s-1.58-.27-2.14-.81c-.55-.55-.82-1.32-.82-2.32Z"/>
        <path class="cls-1" d="M270.68,161.58h-5.17v-7.08h5.03v1.02h-3.92v1.77h3.19v1.02h-3.19v2.24h4.05v1.02Z"/>
        <path class="cls-1" d="M276.49,161.62h-1.05l-3.04-7.12h1.23l2.35,5.58,2.35-5.58h1.2l-3.03,7.12Z"/>
        <path class="cls-1" d="M281.09,161.58h-1.18l3.09-7.12h1.07l3.09,7.12h-1.19l-.77-1.76h-3.36l-.76,1.76ZM283.52,155.86l-1.29,2.97h2.59l-1.29-2.97Z"/>
        <path class="cls-1" d="M296.39,161.58h-3.48v-7.08h3.21c.64,0,1.15.16,1.52.46.37.31.56.74.56,1.27,0,.35-.09.65-.26.91s-.4.44-.68.55c.44.08.81.29,1.09.63s.42.76.42,1.26c0,.6-.22,1.08-.65,1.45-.42.36-1,.55-1.74.55ZM294.02,155.52v1.83h1.91c.37,0,.66-.08.86-.24.21-.16.31-.39.31-.68s-.1-.52-.31-.68c-.21-.15-.49-.23-.86-.23h-1.91ZM294.02,158.33v2.22h2.16c.43,0,.77-.1,1.02-.3.25-.2.37-.48.37-.83s-.12-.62-.36-.81-.58-.28-1.02-.28h-2.16Z"/>
        <path class="cls-1" d="M307.06,160.66c-.69.7-1.55,1.05-2.59,1.05s-1.9-.35-2.59-1.05c-.68-.71-1.02-1.59-1.02-2.62s.34-1.91,1.02-2.61c.69-.71,1.55-1.06,2.59-1.06s1.9.35,2.59,1.06c.69.7,1.03,1.57,1.03,2.61s-.34,1.91-1.03,2.62ZM302.71,159.92c.48.5,1.07.75,1.76.75s1.28-.25,1.76-.75c.48-.51.72-1.14.72-1.88s-.24-1.37-.72-1.87c-.48-.51-1.07-.76-1.76-.76s-1.28.25-1.76.76c-.47.49-.71,1.12-.71,1.87s.24,1.38.71,1.88Z"/>
        <path class="cls-1" d="M315.49,161.58h-4.88v-7.08h1.12v6.06h3.76v1.02Z"/>
        <path class="cls-1" d="M318.84,161.58h-1.11v-7.08h1.11v7.08Z"/>
        <path class="cls-1" d="M325.15,161.62h-1.05l-3.04-7.12h1.23l2.35,5.58,2.35-5.58h1.2l-3.03,7.12Z"/>
        <path class="cls-1" d="M331.5,161.58h-1.11v-7.08h1.11v7.08Z"/>
        <path class="cls-1" d="M334.86,161.58h-1.18l3.09-7.12h1.07l3.09,7.12h-1.19l-.77-1.76h-3.36l-.76,1.76ZM337.29,155.86l-1.29,2.97h2.59l-1.29-2.97Z"/>
        <path class="cls-1" d="M351.85,161.58h-5.17v-7.08h5.03v1.02h-3.92v1.77h3.19v1.02h-3.19v2.24h4.05v1.02Z"/>
        <path class="cls-1" d="M356.41,161.71c-1.08,0-1.97-.25-2.66-.76v-1.2c.28.24.66.46,1.14.65.49.18.97.27,1.46.27s.87-.09,1.18-.28c.31-.19.46-.44.46-.77,0-.26-.11-.47-.31-.66-.08-.07-.2-.14-.36-.21-.19-.09-.52-.21-.97-.33l-.14-.04c-.39-.11-.69-.21-.92-.29-.18-.07-.42-.18-.71-.35-.49-.3-.73-.78-.73-1.43,0-.59.23-1.05.69-1.4.46-.35,1.09-.53,1.88-.53.86,0,1.61.2,2.26.59v1.11c-.72-.44-1.47-.66-2.24-.66-.47,0-.83.08-1.08.25-.25.17-.37.38-.37.65,0,.23.14.44.41.64.04.03.1.06.17.09.07.03.16.06.25.1.09.03.16.06.2.07l.81.23c.49.15.92.32,1.29.53.63.34.96.88,1,1.64,0,.65-.26,1.17-.78,1.55-.52.38-1.17.57-1.94.57Z"/>
        <path class="cls-1" d="M360.81,155.52v-1.02h5.79v1.02h-2.35v6.06h-1.11v-6.06h-2.34Z"/>
        <path class="cls-1" d="M368.34,161.58h-1.18l3.09-7.12h1.07l3.09,7.12h-1.19l-.77-1.76h-3.36l-.76,1.76ZM370.77,155.86l-1.29,2.97h2.59l-1.29-2.97ZM371.28,153.87h-1l.96-1.42h1.37l-1.32,1.42Z"/>
        <path class="cls-1" d="M381.26,161.58h-1.09v-7.08h.97l3.99,5.13v-5.13h1.09v7.08h-.94l-4.02-5.15v5.15Z"/>
        <path class="cls-1" d="M389.52,161.58h-1.18l3.09-7.12h1.07l3.09,7.12h-1.19l-.77-1.76h-3.36l-.76,1.76ZM391.95,155.86l-1.29,2.97h2.59l-1.29-2.97Z"/>
        <path class="cls-1" d="M400.68,161.71c-1.06,0-1.95-.34-2.67-1.03-.71-.69-1.06-1.57-1.06-2.64s.35-1.94,1.06-2.63c.7-.69,1.59-1.04,2.67-1.04.72,0,1.36.16,1.92.47v1.12c-.57-.37-1.21-.56-1.91-.56-.74,0-1.36.25-1.86.75s-.74,1.12-.74,1.88.25,1.39.75,1.89c.5.49,1.13.74,1.89.74.81,0,1.48-.22,2.02-.65v1.12c-.59.38-1.28.57-2.07.57Z"/>
        <path class="cls-1" d="M406.29,161.58h-1.11v-7.08h1.11v7.08Z"/>
        <path class="cls-1" d="M414.28,161.58h-5.17v-7.08h5.03v1.02h-3.92v1.77h3.19v1.02h-3.19v2.24h4.05v1.02Z"/>
        <path class="cls-1" d="M417.7,161.58h-1.09v-7.08h.97l3.99,5.13v-5.13h1.09v7.08h-.94l-4.02-5.15v5.15Z"/>
        <path class="cls-1" d="M427.93,161.58h-2.5v-7.08h2.5c1.13,0,2.06.33,2.78.99.72.66,1.08,1.51,1.08,2.55s-.36,1.9-1.08,2.56c-.71.65-1.64.98-2.78.98ZM426.55,155.52v5.03h1.28c.89,0,1.58-.23,2.07-.68.5-.46.75-1.07.75-1.84s-.25-1.38-.75-1.84c-.49-.45-1.18-.68-2.07-.68h-1.28Z"/>
        <path class="cls-1" d="M440.26,160.66c-.69.7-1.55,1.05-2.59,1.05s-1.9-.35-2.59-1.05c-.68-.71-1.02-1.59-1.02-2.62s.34-1.91,1.02-2.61c.69-.71,1.55-1.06,2.59-1.06s1.9.35,2.59,1.06c.69.7,1.03,1.57,1.03,2.61s-.34,1.91-1.03,2.62ZM435.91,159.92c.48.5,1.07.75,1.76.75s1.28-.25,1.76-.75c.48-.51.72-1.14.72-1.88s-.24-1.37-.72-1.87c-.48-.51-1.07-.76-1.76-.76s-1.28.25-1.76.76c-.47.49-.71,1.12-.71,1.87s.24,1.38.71,1.88Z"/>
      </g>
    </g>
  </g>
</svg>